<svg xmlns="http://www.w3.org/2000/svg" width="54" height="54" viewBox="0 0 54 54">
  <g id="Group_217" data-name="Group 217" transform="translate(-470 -410)">
    <circle id="Ellipse_7" data-name="Ellipse 7" cx="27" cy="27" r="27" transform="translate(470 410)" fill="#1977f3"/>
    <path id="_8535168491656048289" data-name="8535168491656048289" d="M40.382,24.132a4.81,4.81,0,0,1,3.227-1.126C44.826,23,46.043,23,47.259,23c.005,1.286.005,2.566,0,3.852H44.9a1.085,1.085,0,0,0-1.1.843c-.011.859-.005,1.718-.005,2.577,1.152.005,2.3,0,3.457.005-.085,1.243-.24,2.481-.421,3.708-1.019.011-2.038,0-3.057.005-.011,3.665.005,7.324-.005,10.989-1.515.005-3.025-.005-4.54.005-.027-3.665,0-7.33-.016-10.995-.736-.005-1.478.005-2.214-.005.005-1.232,0-2.465,0-3.692.736-.011,1.478,0,2.214-.005.021-1.195-.021-2.4.021-3.59A3.913,3.913,0,0,1,40.382,24.132Z" transform="translate(454.869 403.007)" fill="#fff"/>
  </g>
</svg>
