<svg xmlns="http://www.w3.org/2000/svg" width="54" height="54" viewBox="0 0 54 54">
  <g id="Group_218" data-name="Group 218" transform="translate(-470 -410)">
    <circle id="Ellipse_7" data-name="Ellipse 7" cx="27" cy="27" r="27" transform="translate(470 410)" fill="#e83a76"/>
    <g id="Group_219" data-name="Group 219" transform="translate(-436 -2.007)">
      <path id="_7962830911656048289" data-name="7962830911656048289" d="M40.6,25H31.3A6.311,6.311,0,0,0,25,31.3v9.378a6.311,6.311,0,0,0,6.3,6.3H40.6a6.311,6.311,0,0,0,6.3-6.3V31.3A6.311,6.311,0,0,0,40.6,25Zm4.218,15.682A4.222,4.222,0,0,1,40.6,44.9H31.3a4.222,4.222,0,0,1-4.218-4.218V31.3A4.223,4.223,0,0,1,31.3,27.086H40.6A4.223,4.223,0,0,1,44.815,31.3ZM35.968,30.3a5.656,5.656,0,1,0,5.717,5.656A5.693,5.693,0,0,0,35.968,30.3Zm0,9.23A3.574,3.574,0,1,1,39.6,35.953,3.609,3.609,0,0,1,35.968,39.526Zm7.164-9.461a1.345,1.345,0,1,1-1.345-1.345A1.345,1.345,0,0,1,43.132,30.065Z" transform="translate(897 403.007)" fill="#fff" fill-rule="evenodd"/>
    </g>
  </g>
</svg>
