<svg xmlns="http://www.w3.org/2000/svg" width="54" height="54" viewBox="0 0 54 54">
  <g id="Group_220" data-name="Group 220" transform="translate(-470 -410)">
    <circle id="Ellipse_7" data-name="Ellipse 7" cx="27" cy="27" r="27" transform="translate(470 410)" fill="#cd201f"/>
    <path id="youtube" d="M38.242,66.619a2.991,2.991,0,0,0-2.1-2.118c-1.857-.5-9.3-.5-9.3-.5s-7.444,0-9.3.5a2.991,2.991,0,0,0-2.1,2.118,33.68,33.68,0,0,0,0,11.535,2.947,2.947,0,0,0,2.1,2.085c1.857.5,9.3.5,9.3.5s7.444,0,9.3-.5a2.947,2.947,0,0,0,2.1-2.085,33.68,33.68,0,0,0,0-11.535ZM24.4,75.926V68.847l6.222,3.54Z" transform="translate(470.164 364.63)" fill="#fff"/>
  </g>
</svg>
